<?xml version="1.0" standalone="no"?>
<!DOCTYPE svg PUBLIC "-//W3C//DTD SVG 20010904//EN"
 "http://www.w3.org/TR/2001/REC-SVG-20010904/DTD/svg10.dtd">
<svg version="1.0" xmlns="http://www.w3.org/2000/svg"
 width="700.000000pt" height="700.000000pt" viewBox="0 0 700.000000 700.000000"
 preserveAspectRatio="xMidYMid meet">
<metadata>
Created by potrace 1.11, written by Peter Selinger 2001-2013
</metadata>
<g transform="translate(0.000000,700.000000) scale(0.100000,-0.100000)"
fill="#000000" stroke="none">
<path d="M6587 6753 c-1 0 -123 -4 -272 -8 -148 -3 -317 -8 -375 -10 -58 -2
-211 -6 -340 -9 -129 -4 -293 -9 -365 -11 -71 -2 -227 -7 -345 -10 -118 -3
-280 -8 -360 -10 -186 -6 -546 -16 -675 -19 l-100 -3 -33 33 c-28 28 -37 32
-69 28 -20 -2 -52 -13 -70 -24 -18 -11 -33 -15 -33 -10 0 13 -67 32 -90 25
-11 -4 -34 -21 -50 -38 -28 -30 -29 -31 -49 -13 -14 13 -44 21 -91 25 -66 6
-73 5 -101 -18 -37 -30 -108 -37 -158 -14 -19 9 -63 18 -97 21 -53 4 -69 1
-101 -18 -33 -20 -55 -24 -158 -27 -131 -5 -178 -21 -218 -74 -39 -53 -37
-141 3 -195 37 -49 74 -64 167 -67 l88 -3 2 -157 3 -157 -28 -1 c-164 -4 -186
-11 -233 -69 -34 -42 -43 -88 -29 -139 24 -89 75 -121 204 -128 50 -2 92 -5
92 -6 2 -2 11 -198 20 -442 3 -82 7 -174 9 -202 2 -35 -1 -53 -9 -54 -6 0 -18
-2 -26 -3 -8 -2 -49 -6 -90 -10 -41 -4 -99 -9 -127 -12 l-53 -6 -1 59 c-1 83
-4 93 -59 219 -133 300 -191 485 -205 654 -8 97 -20 126 -56 139 -40 14 -67 2
-117 -51 -122 -129 -174 -262 -165 -424 5 -87 24 -161 75 -288 35 -88 69 -186
67 -194 0 -1 2 -19 5 -40 14 -94 16 -131 7 -136 -5 -3 -26 -8 -47 -12 -111
-16 -379 -79 -544 -126 -562 -159 -957 -383 -1102 -623 -66 -109 -78 -206 -54
-420 2 -22 7 -74 11 -115 3 -41 8 -82 10 -90 2 -8 7 -40 10 -70 3 -30 15 -100
25 -155 11 -55 21 -111 24 -125 11 -64 50 -216 83 -320 19 -63 36 -119 38
-125 1 -5 5 -17 8 -25 3 -8 16 -44 27 -80 87 -267 282 -632 474 -889 141 -189
364 -414 538 -543 29 -22 60 -45 68 -52 79 -64 396 -240 528 -292 63 -25 72
-32 67 -49 -26 -86 -3 -155 78 -228 44 -40 205 -135 230 -136 4 0 32 -9 62
-20 61 -23 191 -58 245 -67 19 -3 38 -8 41 -10 11 -6 231 -38 364 -52 92 -9
557 -9 665 1 542 48 941 196 1019 378 22 50 24 86 6 130 -5 13 7 21 52 39 90
36 321 152 398 201 406 253 725 584 968 999 69 120 183 354 236 487 75 189
173 526 206 708 29 165 35 201 40 255 3 30 9 62 12 70 3 8 7 109 10 224 4 223
-3 272 -49 353 -155 271 -589 507 -1248 677 -222 57 -611 131 -800 151 -14 2
-53 6 -88 10 -35 3 -72 8 -82 10 -10 2 -54 6 -97 10 -43 3 -98 8 -123 11 -40
3 -133 10 -285 19 -27 2 -91 4 -141 5 l-92 2 4 102 c2 55 6 160 8 231 3 72 6
172 7 223 l2 93 191 -6 c105 -3 274 -7 376 -10 102 -3 262 -7 355 -10 94 -3
260 -7 370 -10 110 -3 268 -8 350 -10 83 -3 240 -7 350 -10 311 -8 492 -14
720 -21 202 -6 266 -6 272 -1 4 5 5 418 1 423 -2 2 -672 6 -1489 10 -816 3
-1485 7 -1486 7 -5 6 -7 316 -1 322 5 6 981 13 2520 18 l458 2 0 216 0 216
-96 -1 c-53 0 -96 -2 -97 -3z m-3553 -551 c-3 -59 -8 -125 -9 -147 -2 -22 -4
-47 -4 -56 -1 -18 -68 -20 -79 -2 -4 6 -8 79 -10 161 l-3 151 56 0 56 0 -7
-107z m321 -39 c-2 -82 -4 -155 -4 -163 -1 -12 -15 -15 -66 -16 -67 -1 -70 1
-67 46 0 8 4 71 7 140 4 68 9 128 11 132 3 5 32 8 64 8 l59 0 -4 -147z m240
-16 l0 -162 -39 0 -40 0 -2 163 -2 162 41 0 42 0 0 -163z m-580 -506 c17 -2
27 -671 11 -672 -6 0 -21 -2 -33 -5 -12 -2 -24 0 -27 4 -3 5 -8 154 -11 333
-4 178 -9 327 -11 331 -6 9 15 15 41 12 11 -1 25 -3 30 -3z m331 -13 c7 -8 13
-648 6 -649 -4 -1 -37 -2 -74 -3 l-68 -2 0 332 0 332 65 -3 c36 -1 68 -5 71
-7z m240 -196 c-8 -260 -16 -434 -21 -449 -6 -17 -45 -4 -46 16 0 9 -2 154 -4
322 l-2 307 39 0 40 1 -6 -197z"/>
<path d="M1031 6462 c-54 -53 -87 -96 -123 -162 -41 -76 -53 -136 -52 -260 1
-125 7 -148 82 -335 58 -144 71 -214 67 -380 -1 -77 -5 -152 -9 -167 -3 -16
-8 -39 -10 -52 -8 -43 -47 -177 -72 -242 -22 -59 -23 -67 -9 -93 16 -32 33
-41 74 -41 31 0 79 46 219 214 106 126 217 323 243 431 19 82 16 179 -9 240
-11 28 -42 102 -70 165 -105 242 -168 459 -177 609 -4 84 -20 109 -73 115 -27
4 -39 -3 -81 -42z"/>
</g>
</svg>
